# Blender v2.91.0 OBJ File: 'sailboat_hull02.blend'
# www.blender.org
mtllib boat.mtl
o Cube.002
v -5.997444 6.007889 -11.422663
v -7.997444 6.007889 -11.422667
v -7.997446 6.007889 -9.422667
v -5.997445 6.007889 -9.422665
v 0.002544 4.007903 20.577343
v 0.002554 -5.992110 12.577336
v 4.002550 -5.992095 8.577345
v 8.002544 4.007904 8.577341
v 8.002558 6.007890 -25.422661
v 8.002556 6.007890 -23.422657
v 8.002554 6.007889 -11.422659
v 8.002554 6.007889 -9.422661
v 8.002550 4.007889 -9.422655
v 8.002562 4.007890 -25.422653
v 8.002544 4.007902 6.577342
v 4.002550 -5.992098 6.577344
v 4.002555 -5.992109 -9.422653
v -7.997442 6.007890 -23.422661
v -7.997440 6.007890 -25.422661
v -7.997442 4.007890 -25.422661
v -7.997447 4.007889 -9.422667
v -5.997440 6.007890 -25.422661
v 6.002558 6.007890 -25.422661
v -7.997453 4.007902 6.577333
v -7.997451 6.007903 6.577335
v 8.002550 6.007903 6.577339
v -7.997451 8.007903 6.577333
v -7.997451 8.007905 8.577333
v 0.002548 8.007904 20.577339
v 8.002550 8.007905 8.577335
v 8.002550 8.007903 6.577336
v -7.997446 8.007890 -9.422667
v 8.002554 8.007890 -9.422663
v 6.002555 6.007889 -9.422663
v 0.002548 6.007904 20.577343
v -7.997451 6.007905 8.577335
v -7.997453 4.007904 8.577333
v 8.002550 6.007905 8.577337
v 4.002566 -5.992109 -25.422653
v -3.997444 -5.992109 -9.422661
v -3.997439 -5.992109 -25.422653
v -3.997450 -5.992098 6.577336
v -3.997450 -5.992095 8.577337
v -5.997442 6.007890 -23.422657
v 6.002556 6.007890 -23.422661
v 6.002556 6.007889 -11.422661
v 6.002556 2.007889 -23.422661
v 6.002556 2.007889 -11.422661
v -5.997442 2.007889 -23.422657
v -5.997444 2.007889 -11.422663
vt 2.826617 -0.280955
vt 2.640809 -0.280955
vt 2.640809 -0.466764
vt 2.826617 -0.466764
vt -1.812682 0.509658
vt -1.069446 -0.419385
vt -0.697831 -0.419383
vt -0.697830 0.509658
vt 2.460917 0.695465
vt 2.275107 0.695465
vt 1.160256 0.695465
vt 0.974448 0.695465
vt 0.974447 0.509658
vt 2.460916 0.509658
vt -0.512022 0.509658
vt -0.512022 -0.419384
vt 0.974447 -0.419385
vt 0.974448 0.695465
vt 1.160256 0.695465
vt 2.275108 0.695465
vt 2.460917 0.695465
vt 2.460917 0.509658
vt 0.974448 0.509658
vt 4.124343 1.222027
vt 2.637873 1.222027
vt 2.637873 1.036218
vt 2.823682 1.036218
vt 3.938532 1.036218
vt 4.124343 1.036218
vt -0.512020 0.509658
vt -0.512020 0.695467
vt -0.512020 0.695467
vt 2.640809 -1.953233
vt 2.640809 -2.139043
vt 3.384042 -3.253893
vt 4.127278 -2.139043
vt 4.127278 -1.953233
vt 2.640809 -0.466764
vt 4.127278 -0.466764
vt 0.974448 0.881276
vt -0.512020 0.881276
vt -0.512020 0.881276
vt 0.974448 0.881276
vt 2.637873 1.036218
vt 2.637873 0.850409
vt 4.124343 0.850409
vt 4.124343 1.036218
vt 3.938532 1.036218
vt 2.823682 1.036218
vt -1.812682 0.695470
vt -0.697830 0.695470
vt -0.697830 0.509658
vt -1.812682 0.881276
vt -0.697830 0.881276
vt -0.697830 0.695470
vt -0.697830 0.881276
vt 3.755661 1.019703
vt 3.755661 -0.466766
vt 3.012425 -0.466764
vt 3.012427 1.019703
vt 3.755661 -1.953234
vt 3.012425 -1.953233
vt 3.755661 -2.139043
vt 3.384042 -2.510659
vt 3.012425 -2.139043
vt -0.697830 -0.419383
vt 2.460916 -0.419385
vt 0.974448 -0.419385
vt 2.460916 -0.419385
vt -0.512020 -0.419384
vt 3.752725 2.151071
vt 3.009491 2.151071
vt 2.826617 1.019703
vt 2.640809 1.019703
vt 2.640809 0.833895
vt 2.826617 0.833895
vt 4.127278 0.833895
vt 3.941469 0.833895
vt 3.941469 -0.280955
vt 4.127278 -0.280957
vt 2.275108 0.695465
vt 2.275108 0.323850
vt 1.160256 0.323850
vt 1.160256 0.695465
vt 4.127278 1.019703
vt 3.941469 1.019703
vt 3.941469 -0.466764
vt 4.127278 -0.466764
vt 3.941469 0.833895
vt 2.826617 0.833895
vt 2.826617 -0.280955
vt 3.941469 -0.280955
vt 1.160256 0.695465
vt 1.160256 0.323850
vt 2.275107 0.323850
vt 2.275107 0.695465
vt 3.938532 1.036218
vt 3.938532 1.407834
vt 2.823682 1.407834
vt 2.823682 1.036218
vt 2.823682 1.036218
vt 2.823682 1.407834
vt 3.938532 1.407834
vt 3.938532 1.036218
vn -0.0000 1.0000 0.0000
vn 0.7428 -0.3714 0.5571
vn 1.0000 0.0000 0.0000
vn 0.9285 -0.3714 0.0000
vn -1.0000 0.0000 -0.0000
vn 0.0000 -0.0000 -1.0000
vn -0.8321 0.0000 0.5547
vn 0.8321 -0.0000 0.5547
vn 0.0000 -1.0000 -0.0000
vn -0.7428 -0.3714 0.5571
vn -0.9285 -0.3714 -0.0000
vn 0.0000 0.0000 1.0000
usemtl Material.002
s 1
f 1/1/1 2/2/1 3/3/1 4/4/1
f 5/5/2 6/6/2 7/7/2 8/8/2
f 9/9/3 10/10/3 11/11/3 12/12/3 13/13/3 14/14/3
f 15/15/4 16/16/4 17/17/4 13/13/4
f 3/18/5 2/19/5 18/20/5 19/21/5 20/22/5 21/23/5
f 14/24/6 20/25/6 19/26/6 22/27/6 23/28/6 9/29/6
f 8/8/4 7/7/4 16/16/4 15/15/4
f 21/23/5 24/30/5 25/31/5 3/18/5
f 12/12/3 26/32/3 15/15/3 13/13/3
f 27/33/1 28/34/1 29/35/1 30/36/1 31/37/1
f 32/38/1 27/33/1 31/37/1 33/39/1
f 12/12/3 33/40/3 31/41/3 26/32/3
f 25/31/5 27/42/5 32/43/5 3/18/5
f 3/44/6 32/45/6 33/46/6 12/47/6 34/48/6 4/49/6
f 35/50/7 36/51/7 37/52/7 5/5/7
f 35/50/7 29/53/7 28/54/7 36/51/7
f 25/31/5 36/51/5 28/54/5 27/42/5
f 26/32/3 38/55/3 8/8/3 15/15/3
f 31/41/3 30/56/3 38/55/3 26/32/3
f 24/30/5 37/52/5 36/51/5 25/31/5
f 38/55/8 30/56/8 29/53/8 35/50/8
f 38/55/8 35/50/8 5/5/8 8/8/8
f 39/57/9 17/58/9 40/59/9 41/60/9
f 17/58/9 16/61/9 42/62/9 40/59/9
f 16/61/9 7/63/9 6/64/9 43/65/9 42/62/9
f 37/52/10 43/66/10 6/6/10 5/5/10
f 20/22/11 41/67/11 40/68/11 21/23/11
f 13/13/4 17/17/4 39/69/4 14/14/4
f 24/30/11 42/70/11 43/66/11 37/52/11
f 14/24/6 39/71/6 41/72/6 20/25/6
f 21/23/11 40/68/11 42/70/11 24/30/11
f 22/73/1 19/74/1 18/75/1 44/76/1
f 44/76/1 18/75/1 2/2/1 1/1/1
f 10/77/1 45/78/1 46/79/1 11/80/1
f 45/81/5 47/82/5 48/83/5 46/84/5
f 9/85/1 23/86/1 45/78/1 10/77/1
f 23/86/1 22/73/1 44/76/1 45/78/1
f 11/80/1 46/79/1 34/87/1 12/88/1
f 46/79/1 1/1/1 4/4/1 34/87/1
f 47/89/1 49/90/1 50/91/1 48/92/1
f 1/93/3 50/94/3 49/95/3 44/96/3
f 46/97/6 48/98/6 50/99/6 1/100/6
f 44/101/12 49/102/12 47/103/12 45/104/12
